<svg xmlns="http://www.w3.org/2000/svg" version="1.1" xmlns:xlink="http://www.w3.org/1999/xlink" xmlns:svgjs="http://svgjs.dev/svgjs" width="2000" height="550" viewBox="0 0 2000 550"><g transform="matrix(1,0,0,1,-1.2121212121212466,-0.8803804136666713)"><svg viewBox="0 0 396 109" data-background-color="#ffffff" preserveAspectRatio="xMidYMid meet" height="550" width="2000" xmlns="http://www.w3.org/2000/svg" xmlns:xlink="http://www.w3.org/1999/xlink"><g id="tight-bounds" transform="matrix(1,0,0,1,0.2400000000000091,0.1744753910721215)"><svg viewBox="0 0 395.52 108.65104921785577" height="108.65104921785577" width="395.52"><g><svg viewBox="0 0 395.52 108.65104921785577" height="108.65104921785577" width="395.52"><g><svg viewBox="0 0 395.52 108.65104921785577" height="108.65104921785577" width="395.52"><g id="textblocktransform"><svg viewBox="0 0 395.52 108.65104921785577" height="108.65104921785577" width="395.52" id="textblock"><g><svg viewBox="0 0 395.52 108.65104921785577" height="108.65104921785577" width="395.52"><g transform="matrix(1,0,0,1,0,0)"><svg width="395.52" viewBox="-0.8500000238418579 -31.25 131.04000854492188 36" height="108.65104921785577" data-palette-color="#4790fc"><path d="M39.55-21.4L39.55-21.4Q37.7-20.65 36.38-20.65 35.05-20.65 35.05-21.2L35.05-21.2Q35.05-21.55 36.52-21.6 38-21.65 38.65-21.95L38.65-21.95Q40.55-22.95 40.55-24.9L40.55-24.9Q40.55-25.9 40-27L40-27Q38.4-29.85 32.25-29.85L32.25-29.85Q28.7-29.85 25.15-28.78 21.6-27.7 19.2-25.48 16.8-23.25 16.8-21.35L16.8-21.35Q16.8-18.45 22.55-17.1L22.55-17.1 28.45-16Q32-15.35 33.75-14.2L33.75-14.2Q36.05-12.8 36.05-10.2L36.05-10.2Q36.05-9.15 35.7-7.95L35.7-7.95Q34.1-2.55 27.45 0.3L27.45 0.3Q21.9 2.75 14.35 2.75L14.35 2.75Q12.2 2.75 10.6 2.55L10.6 2.55Q12.2 3.45 14.8 4.1L14.8 4.1Q15 4.15 15 4.3L15 4.3Q15 4.75 13.95 4.75L13.95 4.75Q11.9 4.75 8.85 2.3L8.85 2.3Q4.7 1.65 2.65 0L2.65 0Q1.35-1.05 0.25-3.1-0.85-5.15-0.85-6.8-0.85-8.45-0.2-9.55L-0.2-9.55Q1.3-12.2 3.6-12.2L3.6-12.2Q5.35-12.2 5.65-9.25L5.65-9.25Q6.35-3.55 6.6-2.75L6.6-2.75Q7.35-0.3 9.15 1.4L9.15 1.4Q11.25 1.85 13.7 1.85L13.7 1.85Q19.1 1.85 24.3-0.3 29.5-2.45 31.8-6.4L31.8-6.4Q32.75-7.95 32.75-9.15L32.75-9.15Q32.75-11.5 28.6-12.8L28.6-12.8 19.8-14.8Q17.1-15.45 15.48-16.95 13.85-18.45 13.85-20.4L13.85-20.4Q13.85-23.4 17.6-26.4L17.6-26.4Q20.45-28.7 24.58-29.98 28.7-31.25 32.68-31.25 36.65-31.25 39.25-30.1L39.25-30.1Q42.6-28.55 42.6-25.58 42.6-22.6 39.55-21.4ZM7.35 0.9L7.35 0.9Q4.45-2.3 3.65-7.85L3.65-7.85Q3.2-11 2.8-11 2.4-11 2.05-10.78 1.7-10.55 1.35-9.8 1-9.05 1-7.85L1-7.85Q1-4 3.7-1.25L3.7-1.25Q5.05 0.15 7.35 0.9ZM50.45-10.6L50.45-10.6Q50.45-8.85 47.1-4.75L47.1-4.75Q43.15 0.1 40.35 0.1L40.35 0.1 39.55 0.1Q38.25 0.1 37.5-1.25L37.5-1.25Q36.9-2.2 36.9-3.35L36.9-3.35Q36.9-6.35 41.27-11.78 45.65-17.2 48.35-17.2L48.35-17.2Q50.9-17.2 50.9-14.5L50.9-14.5Q50.9-13.8 50.65-12.7L50.65-12.7Q50.7-12.55 51.6-12.55 52.5-12.55 54.35-13.5L54.35-13.5Q54.3-12.65 50.4-11.05L50.4-11.05Q50.45-10.85 50.45-10.6ZM47.2-13.2L47.2-13.2Q45.5-13.2 42.37-9.2 39.25-5.2 39.25-3.3 39.25-1.4 40.45-1.4L40.45-1.4Q42.6-1.4 45.9-5.3 49.2-9.2 49.2-10.9L49.2-10.9Q48.4-11.35 47.2-13.2ZM55.25 0.65L55.25 0.65Q54.7 0.65 54.25 0.5L54.25 0.5Q51.05-0.4 51.05-3.1L51.05-3.1Q51.05-6.6 55.45-11.2 59.85-15.8 63.35-15.8L63.35-15.8Q64.5-15.8 65.22-15.18 65.95-14.55 65.95-13.48 65.95-12.4 65.3-11.23 64.65-10.05 63.35-10.05 62.05-10.05 62.05-10.85L62.05-10.85Q62.05-11.4 62.72-12.53 63.4-13.65 63.4-13.73 63.4-13.8 63.25-13.8L63.25-13.8Q61.85-13.65 59.42-11.8 57-9.95 56.1-8.7L56.1-8.7 54.15-5.85Q53.65-5.05 53.42-3.95 53.2-2.85 53.2-2.3 53.2-1.75 53.82-1.05 54.45-0.35 55.6-0.35L55.6-0.35Q58.1-0.35 61.8-3.28 65.5-6.2 67.5-8.85L67.5-8.85Q67.75-9.15 68.1-9.15 68.45-9.15 68.45-8.95 68.45-8.75 68.2-8.45L68.2-8.45Q65.45-4.8 61.62-2.08 57.8 0.65 55.25 0.65ZM76.44-20.4Q77.19-20.4 77.87-19.93 78.54-19.45 78.54-18.8 78.54-18.15 77.92-17.68 77.29-17.2 76.54-17.2 75.79-17.2 75.17-17.75 74.54-18.3 74.54-19L74.54-19Q74.54-20.4 76.44-20.4L76.44-20.4ZM67.39 0.55L67.39 0.55Q64.84 0.55 64.84-2.75L64.84-2.75Q64.84-5.45 67.79-10.23 70.74-15 72.54-15.05L72.54-15.05Q73.04-15.05 73.67-14.65 74.29-14.25 74.29-13.85L74.29-13.85Q74.04-13.5 73.69-13.08 73.34-12.65 72.94-12.15 72.54-11.65 71.84-10.73 71.14-9.8 70.49-8.95L70.49-8.95Q66.74-4.1 66.74-2.27 66.74-0.45 67.99-0.45L67.99-0.45Q69.04-0.45 70.84-1.6L70.84-1.6Q75.04-4.2 77.49-7.3L77.49-7.3Q78.39-8.45 78.72-8.45 79.04-8.45 79.04-8.05 79.04-7.65 77.89-6.45 76.74-5.25 76.07-4.55 75.39-3.85 75.14-3.63 74.89-3.4 74.22-2.78 73.54-2.15 73.19-1.9 72.84-1.65 72.19-1.15 71.54-0.65 71.04-0.43 70.54-0.2 69.89 0.1L69.89 0.1Q68.84 0.55 67.39 0.55ZM93.49-14.95L93.49-14.95 94.19-15.1Q94.74-15.1 95.24-14.65 95.74-14.2 95.74-13.95 95.74-13.7 92.64-9.13 89.54-4.55 89.54-2.75L89.54-2.75Q89.54-2.6 89.59-2.45L89.59-2.45Q89.84-1.3 90.69-1.3L90.69-1.3Q93.29-1.3 100.19-9.9L100.19-9.9Q100.34-10.1 100.54-10.1 100.74-10.1 100.74-9.73 100.74-9.35 100.29-8.75L100.29-8.75Q93.89-0.2 90.54-0.2L90.54-0.2Q90.09-0.2 89.69-0.35L89.69-0.35Q87.49-1.2 87.49-3.65L87.49-3.65Q87.49-4.5 87.69-5.35L87.69-5.35 84.59-2.35Q81.64 0.25 80.32 0.25 78.99 0.25 77.79-0.6L77.79-0.6Q76.44-1.6 76.44-3.25L76.44-3.25Q76.44-6.9 81.54-11.98 86.64-17.05 90.89-17.05L90.89-17.05Q92.54-17.05 93.09-15.9L93.09-15.9Q93.24-15.5 93.34-15.23 93.44-14.95 93.49-14.95ZM78.54-2.65L78.54-2.65Q78.54-0.85 79.79-0.85L79.79-0.85Q82.69-0.85 87.69-7.2L87.69-7.2 92.99-14.5Q92.59-15.2 91.69-15.2L91.69-15.2Q88.64-15.2 83.59-10.48 78.54-5.75 78.54-2.65ZM99.44-2.5Q99.44-1 101.09-1 102.74-1 105.34-2.75 107.94-4.5 110.39-7.5L110.39-7.5Q110.99-8.3 111.34-8.3 111.69-8.3 111.69-8L111.69-8Q111.69-7.7 109.64-5.4L109.64-5.4Q104.64 0.1 101.29 0.1L101.29 0.1Q99.64 0.1 98.49-0.68 97.34-1.45 97.34-3.08 97.34-4.7 98.19-6.85L98.19-6.85Q99.64-10.25 102.84-15.4L102.84-15.4Q108.69-24.9 111.14-24.9L111.14-24.9Q111.64-24.9 112.16-24.53 112.69-24.15 112.74-23.7L112.74-23.7Q111.59-22.15 108.31-17.75 105.04-13.35 103.79-11.43 102.54-9.5 101.91-8.55 101.29-7.6 100.99-7.08 100.69-6.55 100.29-5.7L100.29-5.7Q99.44-4 99.44-2.5ZM120.44-1.8L118.84-0.75Q117.39 0.1 115.26 0.1 113.14 0.1 112.01-1.3 110.89-2.7 110.09-5.75L110.09-5.75Q109.19-4.85 108.84-4.85L108.84-4.85Q108.59-4.85 108.59-5.2 108.59-5.55 108.84-5.8L108.84-5.8Q110.49-7.85 114.44-11.7L114.44-11.7 120.74-17.6Q123.44-20.15 123.94-20.15L123.94-20.15Q125.54-20.15 125.54-18.95L125.54-18.95Q125.54-18.35 125.06-17.78 124.59-17.2 124.36-16.88 124.14-16.55 123.89-16.25L123.89-16.25Q122.99-14.7 122.06-9.85 121.14-5 120.64-3.1L120.64-3.1Q124.79-3.15 129.19-8.5L129.19-8.5Q129.69-9 129.94-9 130.19-9 130.19-8.68 130.19-8.35 129.74-7.8L129.74-7.8Q126.84-4.4 124.34-3.05L124.34-3.05Q122.84-2.3 120.44-1.8L120.44-1.8ZM112.09-6.3L112.09-6.3Q112.09-4.6 113.21-3.53 114.34-2.45 115.74-2.45 117.14-2.45 117.89-3L117.89-3Q118.89-3.55 119.86-7.6 120.84-11.65 121.04-14.75L121.04-14.75 121.24-16.45Q118.49-14.4 115.36-11.15 112.24-7.9 112.14-6.85L112.14-6.85Q112.09-6.55 112.09-6.3Z" opacity="1" transform="matrix(1,0,0,1,0,0)" fill="#000000" class="wordmark-text-0" data-fill-palette-color="primary" id="text-0"></path></svg></g></svg></g></svg></g></svg></g><g></g></svg></g><defs></defs></svg><rect width="395.52" height="108.65104921785577" fill="none" stroke="none" visibility="hidden"></rect></g></svg></g></svg>